<?xml version="1.0" standalone="no"?>
<!DOCTYPE svg PUBLIC "-//W3C//DTD SVG 1.1//EN" "http://www.w3.org/Graphics/SVG/1.1/DTD/svg11.dtd" >
<!--
2013-9-30: Created.
-->
<svg>
<metadata>
Created by iconfont
</metadata>
<defs>

<font id="iconfont" horiz-adv-x="1024" >
  <font-face
    font-family="iconfont"
    font-weight="500"
    font-stretch="normal"
    units-per-em="1024"
    ascent="896"
    descent="-128"
  />
    <missing-glyph />
    
    <glyph glyph-name="tianmaotou" unicode="&#58880;" d="M2873.45449 250.52303400000005l0-352.017332-280.397667 0c23.53705 44.002202 35.817267 92.097536 35.817267 144.286208 0 168.845517-134.058701 309.03849-300.864614 317.22496-7.163494 3.069952-12.280218 4.093235-17.396941 4.093235-7.163494 0-10.233446-1.023283-17.396941-4.093235-166.805914-8.18647-299.841331-148.379443-299.841331-317.22496 0-52.18857 11.256832-100.284006 34.793882-144.286208l-1182.991617 0c23.53705 44.002202 35.817267 92.097536 35.817267 144.286208 0 168.845517-133.035418 309.03849-300.864614 317.22496-5.116723 3.069952-9.210163 4.093235-16.373555 4.093235-5.116723 0-10.233446-1.023283-17.396941-4.093235-166.805914-8.18647-300.864614-148.379443-300.864614-317.22496 0-52.18857 13.303501-100.284006 34.793882-144.286208l-279.374318 0 0 352.017332 0 218.987526 0 1.023306c0 5.116518 0 8.18647 1.023386 9.209754 3.070054 121.773466 22.513664 312.108442 123.825254 369.41353 116.66176 66.514944 224.113459-54.235238 245.60384-79.817933 152.479027-170.892186 316.214886-385.78647 615.032832-385.78647l70.611091 0 379.662535 0 1.023349 0 378.639185 0 71.63444 0c297.79456 0 462.553805 214.894285 614.009446 385.78647 20.466995 23.536026 130.988646 148.379443 245.60384 79.817933 102.334874-58.328474 121.778586-246.616781 124.84864-369.41353l0-9.209756 0-1.023306 0-218.987526L2873.454481 250.52303099999995zM1527.750349 69.39781100000005c17.396941 21.489459 4.09344 40.93225-31.723827 40.93225l-117.685152 0c-33.770496 0-49.120768-19.44279-32.747213-40.93225l33.770496-47.072051c13.303501-19.44279 27.630387-39.908966 38.887219-53.211955 3.070054-3.069952 5.116723-7.163187 18.420326-7.163187s16.373555 4.093235 19.44361 7.163187c9.210163 13.302989 23.53705 33.769062 38.887219 53.211955L1527.750349 69.39781100000005zM564.778701 360.016794l15.350237 0c49.120768-24.559309 86.984704-157.589197 86.984704-318.248243 0-52.18857-4.09344-100.284006-12.280218-143.262822l-184.202847 0c-7.163494 44.002202-11.256832 91.074253-11.256832 143.262822 0 160.659046 37.863936 293.688832 86.984704 318.248243L564.778798 360.016794zM2310.61248 360.016794l17.396936 0c48.097382-24.559309 85.961318-158.61248 85.961318-318.248243 0-52.18857-4.09344-99.260723-11.256832-143.262822l-184.202847 0c-7.163494 44.002202-10.233446 91.074253-10.233446 143.262822 0 160.659046 35.817267 293.688832 84.937933 318.248243L2310.612448 360.016794z"  horiz-adv-x="2874" />

    
    <glyph glyph-name="tuichu" unicode="&#58986;" d="M952.532295 400.730033L767.686357 585.576995c-9.060353 9.060353-23.75196 9.060353-32.81743 0l-37.363979-37.362956c-9.060353-9.060353-9.060353-23.757077 0-32.81743l81.538061-81.538061L407.384337 433.858548c-12.812817 0-23.199375-10.386558-23.199375-23.199375l0-52.845579c0-12.815887 10.386558-23.204491 23.199375-23.204491l371.479593 0-81.538061-81.538061c-9.060353-9.060353-9.060353-23.757077 0-32.81743l37.368072-37.363979c9.060353-9.05933 23.75503-9.05933 32.815383 0l147.653875 147.653875c0 0.005117 0.005117 0.005117 0.005117 0.005117l37.368072 37.368072C961.592648 376.979096 961.592648 391.66968 952.532295 400.730033L952.532295 400.730033zM634.083499 831.245184l-499.803213 0c-38.441521 0-69.608358-31.166837-69.608358-69.608358l0-754.806002c0-38.446637 31.166837-69.608358 69.608358-69.608358l499.803213 0c38.441521 0 69.608358 31.16172 69.608358 69.608358l0 97.937566c0 12.811794-10.386558 23.204491-23.204491 23.204491l-50.29243 0c-12.812817 0-23.205515-10.392698-23.205515-23.204491l0-37.257555c0-34.328853 0-34.328853-34.791387-34.328853L195.199751 33.181982999999946c-34.801621 0-34.801621-0.00614-34.801621 34.806737L160.39813 701.287343c0 34.900881-0.074701 34.802644 34.801621 34.802644l376.99726 0c34.798551 0 34.791387-0.285502 34.791387-34.329876l0-38.353516c0-12.815887 10.392698-23.204491 23.205515-23.204491l50.29243 0c12.817933 0 23.204491 10.388605 23.204491 23.204491L703.690834 761.636826C703.691857 800.078347 672.52502 831.245184 634.083499 831.245184L634.083499 831.245184zM634.083499 831.245184"  horiz-adv-x="1024" />

    
    <glyph glyph-name="gwc" unicode="&#58890;" d="M1003.442802 728.054987c-9.960863 11.328-23.089881 17.323551-37.997406 17.323551l-752.437048 0C202.701608 803.404092 150.935618 848.10927 91.855034 848.10927L24.385387 848.10927c-12.900821 0-23.340591-10.43977-23.340591-23.340591s10.43977-23.340591 23.340591-23.340591l67.469648 0c38.08848 0 71.549569-29.860075 76.381621-69.156056l33.232892-191.808514 58.921971-414.867776c3.418866-28.514427 28.560476-51.696406 56.04955-51.696406l609.366561 0c12.900821 0 23.340591 10.43977 23.340591 23.340591 0 12.900821-10.43977 23.340591-23.340591 23.340591L316.441069 120.58051799999998c-3.327792 0-9.003048 4.740978-9.756201 11.07729l-11.478426 80.802304 112.454188 9.484002 485.847363 35.877115c31.888268 0.182149 59.833737 24.52558 63.434751 54.248531l62.751183 359.251084C1022.202051 692.177871 1015.95579 713.945641 1003.442802 728.054987zM849.442382 1.2098039999999628c-34.740222 0-63.005986-28.265764-63.005986-63.001893 0-34.716686 28.28009-62.977333 63.005986-62.977333 34.69622 0 62.972217 28.266787 62.972217 62.977333C912.414599-27.055960000000027 884.152928 1.2098039999999628 849.442382 1.2098039999999628zM355.396289 1.2098039999999628c-34.740222 0-63.004963-28.265764-63.004963-63.001893 0-34.716686 28.28009-62.977333 63.004963-62.977333 34.69622 0 62.972217 28.266787 62.972217 62.977333C418.368506-27.055960000000027 390.108882 1.2098039999999628 355.396289 1.2098039999999628z"  horiz-adv-x="1024" />

    
    <glyph glyph-name="xjt" unicode="&#58924;" d="M219.4228726 543.71586574c-19.90274264-19.34771397-19.90274264-50.74311455 0-70.13856608l256.64474931-249.32880945c19.93838669-19.33816645 52.2656244-19.33816645 72.16454804 0l256.63520181 249.32880945c19.93838669 19.39163252 19.93838669 50.78830611 0 70.13856608-19.90974415 19.38081201-52.22998035 19.38081201-72.17282256 0l-220.54560801-214.27161992-220.52014801 214.27161992c-19.93838669 19.38017552-52.2598959 19.38017552-72.20846659 0l0 0z"  horiz-adv-x="1024" />

    
    <glyph glyph-name="caidan" unicode="&#58888;" d="M1115.98024721 805.78410618c0-31.7449031-21.53923328-60.25487286-48.10315862-60.25487287L78.57305221 745.52923331c-26.56486646 0-48.10410105 28.50996976-48.10410104 60.25487287l0 0c0 31.7449031 21.53829216 60.25487286 48.10410104 60.25487287l989.30403509 0C1094.44101263 866.03897775 1115.98024721 837.52900929 1115.98024721 805.78410618L1115.98024721 805.78410618zM1115.98024721 384c0-31.7449031-21.53923328-60.25487286-48.10315862-60.25487286L78.57305221 323.74512714c-26.56486646 0-48.10410105 28.50996976-48.10410104 60.25487286l0 0c0 31.7449031 21.53829216 60.25487286 48.10410104 60.25487286l989.30403509 0C1094.44101263 444.25487286 1115.98024721 415.7449031 1115.98024721 384L1115.98024721 384zM1115.98024721-37.78410617999998c0-31.7449031-21.53923328-60.25487286-48.10315862-60.25487287L78.57305221-98.03897774999996c-26.56486646 0-48.10410105 28.50996976-48.10410104 60.25487285l0 0c0 31.7449031 21.53829216 60.25487286 48.10410104 60.25487288l989.30403509 0C1094.44101263 22.470766690000005 1115.98024721-6.039203079999993 1115.98024721-37.78410617999998L1115.98024721-37.78410617999998z"  horiz-adv-x="1152" />

    
    <glyph glyph-name="youxi" unicode="&#58915;" d="M741.381743 396.37874C721.128554 391.922399 701.753855 387.657729 684.455587 383.297224 654.267473 375.678319 635.531676 360.759961 594.530149 319.74246100000005L589.89811 315.14236700000004 585.409825 310.654082 581.943782 307.188039 576.337418 301.53375700000004C535.399781 260.516258 520.449477 241.79643299999998 512.87849 211.640265 508.517985 194.21421599999996 504.269287 174.74368200000004 499.781002 154.45854799999995 471.541539 26.37469599999997 439.548528-118.81575399999997 326.766376-127.64857199999994 323.667702-127.904133 320.632918-127.99996799999997 317.566189-127.99996799999997 208.282025-127.99996799999997 141.51678 14.85848999999996 76.923801 153.005046 64.928418 178.67292799999996 53.619855 202.87133700000004 42.598798 224.913451-28.367227 366.87744599999996-10.733535 479.4839 99.780515 590.093786L158.990746 649.383879 212.64253 703.067609 247.047396 737.520392 270.766627 761.255596 306.273599 796.794513C348.856408 839.377322 416.755704 896 514.875058 896 563.607298 896 614.703475 882.279582 671.086565 854.024147 693.064789 843.00309 717.247225 831.7105 742.787327 819.699144 885.070773 753.077652 1032.161955 684.188058 1023.297192 569.585036 1014.496319 456.643158 869.401705 424.618202 741.381743 396.37874ZM641.026232 797.9285629999999C592.869004 822.079054 551.116767 833.116084 513.357666 833.116084 451.495993 833.116084 400.447734 803.375202 349.734898 752.614448 334.049857 736.88149 314.579323 717.426928 290.700366 693.5319979999999 256.343418 659.143105 227.337273 630.105015 202.947194 605.682991 179.068237 581.7880620000001 159.597702 562.285582 143.912662 546.600541 62.261003 464.86902 34.995866 382.29095299999994 98.646464 254.98975600000006 161.306765 129.78096300000004 232.320708-62.129186000000004 316.719644-62.129186000000004 318.157173-62.129186000000004 319.594703-62.097240000000056 321.032232-61.969460000000026 400.559542-55.72419400000001 424.039185 122.75304200000005 450.665421 228.95450500000004 462.469133 275.929765 487.258525 304.472706 530.368429 347.614555 533.38724 350.617393 536.390079 353.66814999999997 539.40889 356.702934 542.459647 359.76966300000004 545.49443 362.756529 548.481297 365.759368 591.5912 408.885244 620.150114 433.722554 667.061483 445.558211 773.167111 472.184446 951.46865 495.680062 957.68197 575.335153 964.374467 661.68274 768.279512 734.1342119999999 641.026232 797.9285629999999ZM574.644328 608.334434L638.534515 608.334434 638.534515 544.444247 574.644328 544.444247 574.644328 608.334434ZM574.644328 704.169714L638.534515 704.169714 638.534515 640.279528 574.644328 640.279528 574.644328 704.169714ZM478.809048 608.334434L542.699235 608.334434 542.699235 544.444247 478.809048 544.444247 478.809048 608.334434ZM478.809048 704.169714L542.699235 704.169714 542.699235 640.279528 478.809048 640.279528 478.809048 704.169714ZM355.165564 284.219517C343.202127 272.24010699999997 323.77951 272.24010699999997 311.8001 284.219517L286.787092 309.232525 262.476876 284.92230900000004C250.497466 272.942899 231.074849 272.942899 219.111411 284.92230900000004 207.132001 296.90171899999996 207.132001 316.324336 219.111411 328.287773L243.421627 352.613962 219.111411 376.924178C207.132001 388.903588 207.132001 408.326205 219.111411 420.305615 231.074849 432.285025 250.497466 432.285025 262.476876 420.305615L286.787092 395.995399 311.097308 420.305615C323.076718 432.285025 342.483362 432.285025 354.462772 420.305615 366.442182 408.326205 366.442182 388.903588 354.462772 376.924178L330.152556 352.613962 355.165564 327.58498099999997C367.144974 315.60557100000005 367.144974 296.182954 355.165564 284.219517Z"  horiz-adv-x="1024" />

    
    <glyph glyph-name="tianmao" unicode="&#59289;" d="M170.66666667-93.86666666999997l136.53333333 0c0 75.3664-30.5152 136.53333333-68.26666667 136.53333334S170.66666667-18.500266669999974 170.66666667-93.86666666999997zM716.8-93.86666666999997l136.53333333 0c0 75.3664-30.5152 136.53333333-68.26666666 136.53333334S716.8-18.500266669999974 716.8-93.86666666999997zM934.84373333 243.30240000000003c-37.2736 6.89493333-79.39413333-26.4192-116.59946666-91.7504-37.0688-64.9216-82.944-108.27093333-186.1632-108.27093333L391.50933333 43.28106666999997c-103.28746667 0-149.0944 43.34933333-186.23146666 108.27093333C168.1408 216.95146666999995 125.61066667 250.26559999999995 88.74666667 243.30240000000003c-26.0096-4.9152-46.8992-30.9248-54.61333334-66.28693333L34.13333333 42.66666667000004c0-51.13173333 28.4672-95.232 70.0416-118.5792C113.0496-9.079466669999988 169.64266667 42.66666667000004 238.93333333 42.66666667000004c75.3664 0 136.53333333-61.16693333 136.53333334-136.53333334l68.26666666 0c0 37.75146667 30.5152 68.26666667 68.26666667 68.26666667s68.26666667-30.5152 68.26666667-68.26666667l68.26666666 0c0 75.3664 61.16693333 136.53333333 136.53333334 136.53333334 69.29066667 0 125.88373333-51.74613333 134.7584-118.5792C961.39946667-52.565333330000044 989.86666667-8.465066670000056 989.86666667 42.66666667000004l0 133.12C982.35733333 211.83146667000005 961.19466667 238.31893333000005 934.84373333 243.30240000000003zM853.33333333 861.86666667L170.66666667 861.86666667C95.30026667 861.86666667 34.13333333 800.69973333 34.13333333 725.33333333l0-428.6464c13.1072 8.6016 27.17013333 15.22346667 42.53013334 18.15893334 31.40266667 6.144 112.36693333 5.66613333 187.1872-125.5424 24.3712-42.93973333 47.85493333-73.25013333 127.65866666-73.25013334L632.14933333 116.05333332999999c79.73546667 0 103.2192 30.3104 127.65866667 73.25013334 74.82026667 131.14026667 155.78453333 131.6864 187.11893333 125.5424C962.42346667 311.84213333 976.6912 305.08373333 989.86666667 296.3456L989.86666667 725.33333333C989.86666667 800.69973333 928.69973333 861.86666667 853.33333333 861.86666667zM682.66666667 657.06666667L580.26666667 657.06666667l0-273.06666667c0-37.75146667-30.5152-68.26666667-68.26666667-68.26666667S443.73333333 346.24853333 443.73333333 384L443.73333333 657.06666667 341.33333333 657.06666667C322.49173333 657.06666667 307.2 672.3584 307.2 691.2S322.49173333 725.33333333 341.33333333 725.33333333l341.33333334 0C701.50826667 725.33333333 716.8 710.0416 716.8 691.2S701.50826667 657.06666667 682.66666667 657.06666667z"  horiz-adv-x="1024" />

    
    <glyph glyph-name="wangwang" unicode="&#59295;" d="M558.976 715.968C474.368 781.632 318.72 832 318.72 832s38.912-64.576 46.272-137.216C189.824 637.312 64 480.256 64 295.104 64 61.504 264.64-128 512.064-128S960 61.504 960 295.104C960 513.92 784.32 693.76 558.976 715.968zM585.728 267.584c-30.464 0-50.816-1.408-78.08-1.792 12.224 62.4 1.152 145.92-27.008 170.432 32.128 11.52 41.984 19.328 77.056 29.184C593.472 434.624 593.472 311.104 585.728 267.584zM825.92 296.64c-30.656 0-45.696 1.152-74.048-1.856 10.496 68.672 4.16 144.896-37.184 170.496 31.552 13.568 39.744 20.672 75.072 29.184C830.336 456.256 848.128 335.936 825.92 296.64z"  horiz-adv-x="1024" />

    
    <glyph glyph-name="xunzhang" unicode="&#59007;" d="M40.394588 896l330.122661 0 235.802706-419.787682-282.959865 0L40.394588 896zM512.183191 431.937366c-156.332507 0-283.065083-125.34596-283.065083-279.968683 0-154.621784 126.732576-279.968683 283.065083-279.968683s283.066022 125.34596 283.066022 279.968683C795.249214 306.590467 668.516638 431.937366 512.183191 431.937366zM603.809767 0.4273289999999861L510.491256 68.82338800000002l-95.016082-65.826686 33.974912 113.032696-89.81815 73.237003 114.313155 1.470226 39.5148 111.081475 36.669231-112.122377 114.233303-4.586355-91.644425-70.761574L603.809767 0.4273289999999861zM606.319955 896l377.285457 0L653.482751 476.212318l-141.482751 269.864047L606.319955 896"  horiz-adv-x="1024" />

    
    <glyph glyph-name="shouji" unicode="&#58887;" d="M728.9735259 897.20030208L295.00784413 897.20030208c-65.38017451 0-118.35427726-53.01035349-118.35427727-118.34942805l0-788.99734984c0-65.33907456 52.9752667-118.350592 118.35427727-118.350592l433.96684686 0c65.38017451 0 118.35427726 53.01151858 118.35427726 118.350592L847.32896825 778.85087403C847.32896825 844.1887835 794.35486549 897.20030208 728.9735259 897.20030208zM472.53867747 857.75049273l78.90401622 0c10.90290574 0 19.72513109-8.82302749 19.72513109-19.72432214 0-10.90245859-8.82222535-19.72548722-19.72513109-19.72548721l-78.90401622 0c-10.90174179 0-19.72513109 8.82302749-19.72513109 19.72548721C452.81354638 848.92746411 461.63693568 857.75049273 472.53867747 857.75049273zM511.99126755-80.30107421000002c-27.85573661 0-50.43117739 22.57451691-50.43117738 50.42911119 0 27.85343033 22.57660587 50.42911118 50.43117738 50.42911118 27.85457152 0 50.43117739-22.5768448 50.43117739-50.42911118C562.42361003-57.727721249999945 539.84583907-80.30107421000002 511.99126755-80.30107421000002zM768.42495203 88.47746502999996c0-10.90245859-8.82222535-19.72432213-19.72513109-19.72432213L275.28154909 68.75314289999994c-10.90290574 0-19.72629504 8.82186354-19.72629504 19.72432213L255.55525405 759.12538681c0 10.90245859 8.8233893 19.72432213 19.72629504 19.72432213l473.41827185 0c10.90290574 0 19.72513109-8.82302749 19.72513109-19.72432213L768.42495203 88.47746502999996z"  horiz-adv-x="1024" />

    
    <glyph glyph-name="zhuanson" unicode="&#58932;" d="M423.38304 273.854464c0.137216-0.022528 0.262144-0.06144 0.397312-0.083968l150.632448-23.422976 56.428544-143.024128c7.704576-19.52768 26.406912-31.442944 46.200832-31.442944 6.06208 0 12.228608 1.11616 18.214912 3.475456 25.501696 10.06592 38.023168 38.903808 27.96544 64.405504l-66.869248 169.486336c-6.457344 16.357376-21.190656 28.141568-38.559744 30.84288l-124.803072 19.412992c-0.647168 29.288448 2.578432 59.619328 7.190528 88.516608-9.12384 7.174144-17.209344 14.47936-24.240128 21.506048-33.544192 33.380352-50.42176 66.103296-54.800384 75.33568l-0.024576 0.055296-0.169984 0.366592c-4.397056 9.65632-4.763648 20.453376-1.040384 30.384128 3.721216 9.9328 11.096064 17.823744 20.752384 22.21056 5.21216 2.377728 10.739712 3.57376 16.431104 3.57376 15.542272 0 29.741056-9.136128 36.171776-23.27552l0.196608-0.391168c0.292864-0.600064 0.780288-1.562624 1.46432-2.840576 1.384448-2.605056 3.713024-6.7584 6.95296-11.812864 3.790848-5.933056 9.279488-13.799424 16.412672-22.347776 7.161856 37.543936-7.931904 78.946304-39.432192 86.796288-33.910784 8.456192-83.06688-9.961472-103.067648-68.122624-27.029504-80.140288-32.841728-132.298752-22.56896-220.540928C363.153408 291.79699200000005 393.15456 277.356544 423.38304 273.854464zM812.7488 349.14713600000005c33.449984 0 33.449984 121.153536 0 121.153536-33.45408 0-60.575744-27.119616-60.575744-60.575744S779.292672 349.14713600000005 812.7488 349.14713600000005zM495.18592 562.8416c-3.342336 5.220352-5.758976 9.515008-7.28064 12.355584-0.755712 1.421312-1.292288 2.480128-1.601536 3.1232-0.129024 0.264192-0.223232 0.454656-0.282624 0.567296l0.004096 0c-7.272448 15.976448-26.107904 23.033856-42.084352 15.763456-15.982592-7.262208-23.033856-26.099712-15.771648-42.074112 1.056768-2.187264 17.03936-37.265408 53.389312-73.428992 35.956736-35.954688 94.447616-73.224192 175.069184-73.228288 0.1536 0 0.294912 0 0.448512 0 4.724736 0 9.48224 0.131072 14.280704 0.374784 17.526784 0.894976 31.012864 15.8208 30.119936 33.349632-0.892928 17.526784-15.828992 31.010816-33.345536 30.11584-3.79904-0.19456-7.483392-0.284672-11.055104-0.284672-60.880896 0.131072-102.240256 26.816512-130.762752 54.80448C512.233472 538.226688 501.864448 552.3968 495.18592 562.8416zM561.85856 667.035648c-10.930176-5.849088-22.677504-7.68-34.625536-7.68-10.438656 0.008192-21.096448 1.37216-31.852544 2.77504-10.037248 1.304576-18.898944 3.371008-26.804224 6.18496 12.140544-15.704064 29.554688-27.492352 50.397184-32.342016 48.060416-11.196416 96.094208 18.696192 107.296768 66.75456 4.950016 21.266432 1.847296 42.520576-7.305216 60.585984-16.003072-1.964032-37.537792-5.947392-48.408576-14.340096-4.962304-3.807232-7.479296-7.811072-7.520256-12.988416 0-0.26624 0.008192-0.540672 0.03072-0.847872 1.017856-19.218432 5.390336-32.602112 5.453824-45.883392 0.018432-6.848512-1.306624-13.682688-5.031936-20.598784C563.130368 667.979776 562.546688 667.4001920000001 561.85856 667.035648zM446.439424 690.868224c10.971136-11.034624 26.689536-17.805312 49.973248-20.862976 10.73152-1.404928 21.090304-2.711552 30.820352-2.701312 10.747904 0 20.666368 1.56672 29.7984 6.17472 2.635776 5.316608 3.530752 10.237952 3.545088 15.777792 0.063488 11.360256-4.308992 25.268224-5.439488 45.430784-0.03072 0.428032-0.038912 0.864256-0.047104 1.298432-0.032768 8.18176 4.503552 14.747648 10.682368 19.331072 6.20544 4.665344 14.206976 7.866368 22.644736 10.278912 14.587904 4.145152 30.62784 5.830656 40.441856 6.73792-1.697792 12.06272-5.502976 23.552-11.096064 34.03776-15.177728 28.479488-43.3664 49.432576-77.79328 53.932032-4.544512 0.598016-9.05216 0.88064-13.512704 0.88064-0.006144 0-0.01024 0-0.018432 0-51.060736-0.002048-95.46752-37.894144-102.252544-89.911296-0.589824-4.524032-0.88064-9.019392-0.88064-13.457408 0-6.139904 0.548864-12.183552 1.605632-18.089984C428.834816 717.717504 435.458048 701.915136 446.439424 690.868224zM985.53856 155.99616000000003c-38.49216 50.15552-92.033024 59.881472-129.6896 59.377664-2.363392 6.36928-4.808704 13.029376-7.354368 20.066304-23.076864 63.801344-74.901504 94.189568-105.404416 107.040768l-29.407232 85.764096c-0.925696 2.686976-2.42688 5.085184-4.327424 7.114752-1.32096-19.791872-17.299456-35.964928-37.593088-37.00736-5.015552-0.251904-9.959424-0.382976-14.688256-0.382976l-0.448512 0c-13.494272 0.002048-26.320896 0.997376-38.494208 2.801664-0.059392-2.490368 0.323584-5.033984 1.257472-7.507968 3.87072-10.26048 15.331328-15.43168 25.597952-11.558912l0 0.008192 37.758976 14.270464 89.606144-261.320704c15.511552 16.951296 35.110912 29.835264 57.475072 37.419008 14.381056 4.876288 29.319168 7.354368 44.378112 7.354368 47.976448 0 91.570176-24.73984 116.539392-63.95904C1005.606912 116.18713600000001 1009.412096 124.88908800000002 985.53856 155.99616000000003zM836.20864 153.27641600000004c-61.894656-20.985856-95.062016-88.178688-74.074112-150.075392 20.985856-61.894656 88.172544-95.062016 150.075392-74.07616 61.896704 20.985856 95.062016 88.180736 74.07616 150.075392C965.298176 141.09695999999997 898.111488 174.26432 836.20864 153.27641600000004zM889.22112-3.074047999999948c-24.45312-8.2944-51.003392 4.816896-59.287552 29.263872-8.286208 24.45312 4.818944 51.003392 29.263872 59.287552 24.45312 8.2944 51.003392-4.818944 59.287552-29.263872C926.779392 31.760384000000045 913.676288 5.220352000000048 889.22112-3.074047999999948zM737.540096 61.986815999999976L484.276224 61.986815999999976c-21.897216 44.17536-29.425664 89.270272-31.920128 118.607872 6.5024 1.990656 11.261952 7.970816 11.261952 15.12448l0 43.69408c0 8.77568-7.112704 15.890432-15.888384 15.890432L123.990016 255.30367999999999c-8.773632 0-15.888384-7.112704-15.888384-15.890432l0-43.69408c0-8.77568 7.114752-15.888384 15.888384-15.888384l1.75104 0c-17.256448-42.3424-43.886592-115.734528-43.886592-165.511168 0 0 26.994688 0 68.489216 0-5.957632 29.72672-2.025472 60.413952 11.614208 88.049664 16.347136 33.101824 44.5952 57.868288 79.55456 69.711872 14.391296 4.882432 29.31712 7.350272 44.386304 7.350272 59.250688 0 111.843328-37.71392 130.875392-93.857792 8.062976-23.775232 9.216-48.242688 4.610048-71.251968 9.508864 0 18.827264 0 27.906048 0 23.943168 0 46.180352 0 65.540096 0l223.83616 0C735.492096 30.138368000000014 735.123456 46.22745599999996 737.540096 61.986815999999976zM247.88992 153.27641600000004c-61.896704-20.985856-95.062016-88.180736-74.07616-150.075392 20.985856-61.896704 88.172544-95.062016 150.075392-74.07616 61.896704 20.987904 95.062016 88.180736 74.07616 150.075392C376.97536 141.09695999999997 309.792768 174.26432 247.88992 153.27641600000004zM300.9024-3.074047999999948c-24.455168-8.2944-51.003392 4.816896-59.2896 29.263872-8.286208 24.45312 4.818944 51.003392 29.26592 59.287552 24.45312 8.2944 51.001344-4.818944 59.287552-29.263872C338.460672 31.760384000000045 325.357568 5.220352000000048 300.9024-3.074047999999948zM318.86336 297.68908799999997L318.86336 545.0383360000001c0 11.706368-9.488384 21.198848-21.1968 21.198848L46.780416 566.2371840000001c-11.706368 0-21.194752-9.49248-21.194752-21.198848l0-247.349248c0-11.712512 9.488384-21.202944 21.194752-21.202944l250.888192 0C309.374976 276.488192 318.86336 285.97862399999997 318.86336 297.68908799999997zM230.948864 461.981696l-74.151936-158.879744c-1.191936-2.289664-3.11296-3.432448-5.767168-3.432448-0.366592 0-1.007616 0.09216-1.923072 0.272384-1.55648 0.458752-2.72384 1.327104-3.50208 2.6112-0.77824 1.28-0.985088 2.65216-0.618496 4.11648l27.052032 110.954496-55.750656-13.869056c-0.366592-0.09216-0.915456-0.137216-1.64864-0.137216-1.64864 0-3.065856 0.499712-4.255744 1.509376-1.64864 1.374208-2.244608 3.160064-1.785856 5.35552l27.600896 113.289216c0.366592 1.282048 1.099776 2.33472 2.197504 3.158016 1.099776 0.825344 2.379776 1.234944 3.844096 1.234944l45.039616 0c1.736704 0 3.203072-0.571392 4.39296-1.718272 1.189888-1.144832 1.785856-2.494464 1.785856-4.050944 0-0.733184-0.231424-1.55648-0.688128-2.469888l-23.48032-63.578112 54.378496 13.457408c0.735232 0.182272 1.282048 0.274432 1.650688 0.274432 1.738752-0.004096 3.29728-0.690176 4.66944-2.062336C231.636992 466.192384 231.95648 464.1792 230.948864 461.981696z"  horiz-adv-x="1024" />

    
    <glyph glyph-name="chaoshi" unicode="&#58913;" d="M511.169587 720.7444869999999c110.465904 0 205.064422-67.143213 243.044432-161.64247h51.551096c-40.08188 121.030517-156.949588 208.873168-294.595528 208.873168-137.644917 0-254.55151-87.842651-294.593482-208.873168h51.530631c37.981033 94.499258 132.578528 161.64247 243.062851 161.64247z m432.142208-176.233793H79.028403c-16.770965 0-30.379914-13.196557-30.379915-29.496801v-101.648075c0-16.300244 13.608949-29.496801 30.379915-29.496801h25.411763l66.809615-333.281619s3.770883-46.797839 40.572044-46.797839h601.148389c36.821627 0 40.59251 46.797839 40.59251 46.797839l66.809616 333.281619h22.937408c16.770965 0 30.360472 13.196557 30.360472 29.496801v101.648075c0.002047 16.299221-13.58746 29.496801-30.358425 29.496801zM382.656655 114.43147099999999c0-17.400299-14.493086-31.500435-32.383548-31.500434s-32.383548 14.100136-32.383548 31.500434V370.20071600000006c0 17.400299 14.493086 31.500435 32.383548 31.500435s32.383548-14.100136 32.383548-31.500435v-255.769245z m160.897503 0c0-17.400299-14.513552-31.500435-32.383548-31.500434-17.909905 0-32.383548 14.100136-32.383548 31.500434V370.20071600000006c0 17.400299 14.473643 31.500435 32.383548 31.500435 17.871019 0 32.383548-14.100136 32.383548-31.500435v-255.769245z m160.89648 0c0-17.400299-14.493086-31.500435-32.40299-31.500434-17.871019 0-32.364105 14.100136-32.364105 31.500434V370.20071600000006c0 17.400299 14.493086 31.500435 32.364105 31.500435 17.909905 0 32.402991-14.100136 32.40299-31.500435v-255.769245z"  horiz-adv-x="1024" />

    
    <glyph glyph-name="wode" unicode="&#59552;" d="M704 566.848C704 686.634667 622.848 768 512 768s-192-81.365333-192-201.152C320 441.237333 407.146667 341.33333300000004 512 341.33333300000004s192 99.904 192 225.514667z m42.666667 0C746.666667 419.285333 642.176 298.66666699999996 512 298.66666699999996s-234.666667 120.618667-234.666667 268.181333C277.333333 714.4533329999999 381.824 810.666667 512 810.666667s234.666667-96.213333 234.666667-243.818667zM512.106667 256c408.96 0 404.864-256.512 404.864-256.512 3.093333-23.274667-13.482667-42.154667-37.098667-42.154667H144.32c-23.573333 0-41.088 19.136-37.077333 42.154667 0 0-4.096 256.512 404.864 256.512zM149.909333 0l0.064-3.861333-0.704-3.968c0.682667 3.882667-2.837333 7.829333-4.949333 7.829333H879.872c-2.154667 0-5.504-3.818667-5.205333-6.144l-0.426667 3.157333 0.064 3.157334c0 0.853333-0.128 3.349333-0.533333 7.125333a161.813333 161.813333 0 0 1-4.266667 23.082667 192.96 192.96 0 0 1-35.242667 71.104C780.330667 170.53866700000003 678.634667 213.33333300000004 512.106667 213.33333300000004c-166.549333 0-268.224-42.794667-322.176-111.850666a192.96 192.96 0 0 1-35.242667-71.104c-2.176-8.426667-3.541333-16.192-4.266667-23.082667a81.045333 81.045333 0 0 1-0.512-7.296z"  horiz-adv-x="1024" />

    
    <glyph glyph-name="sousuo" unicode="&#59054;" d="M125.86894222 685.37571555l184.20736 9.72572445c10.69624889 0.5632 19.91111111-7.7312 20.47317333-18.42858667l1.99338667-37.86296888c0.56206222-10.67918222-7.71640889-19.89404445-18.41265777-20.45724445l-184.20736-9.72572445c-10.69624889-0.56206222-19.91111111 7.71640889-20.47317334 18.41265778l-1.99338666 37.86296889c-0.56206222 10.69738667 7.71527111 19.91224889 18.41265777 20.47317333z m895.09660445-96.52337777l-209.97802667 11.68611555-43.38232889 133.00622222H447.88736l-36.31331555-132.05390222L2.19591111 576.40163555c-1.27886222-178.53667555-0.35726222-357.25880889-0.35726222-535.79548444h382.29560889a316.50816 316.50816 0 0 0-14.35761778 13.52362667c-61.55605333 61.55605333-95.87712 144.38513778-95.87712 231.47292444s34.32106667 169.89980445 95.87712 231.47292445c61.57198222 61.57312 144.40220445 95.87712 231.48885333 95.87712 87.08778667 0 169.89980445-34.304 231.47292445-95.87712 61.55605333-61.57312 95.87712-144.38513778 95.87712-231.47292445s-34.304-169.91687111-95.87712-231.47292444c-4.66716445-4.68309333-9.45265778-9.16366222-14.34055111-13.52362667h202.56768V588.85233778zM363.61102222 311.08551110999997c48.49095111 28.15431111 99.07768889 45.11857778 150.51548445 57.53514667-61.62432-80.27591111-87.85351111-165.42151111-85.58819556-254.53568-44.45525333 47.07783111-73.56416 106.65984-64.92728889 197.00053333z m91.85621333-219.60248889c-0.13767111 56.07196445 10.45731555 108.36195555 25.41226667 159.11936 38.69696-93.51054222 99.35189333-158.79509333 177.64920889-201.39349333-62.98624-14.97201778-129.15712-10.37312-203.06147556 42.27413333z m236.0888889-30.24896c-48.62862222 27.91537778-88.62151111 63.24110222-125.0872889 101.58193778 100.32241778-13.25169778 187.18833778 6.62641778 263.22147556 53.13991111-18.53212445-62.03164445-55.57703111-117.02954667-138.13418666-154.72184889z m144.24860444 189.35125333c-48.47502222-28.17137778-99.07882667-45.13678222-150.49955556-57.57041777 61.60611555 80.27591111 87.83644445 165.43857778 85.57112889 254.55160889 44.45525333-47.07783111 73.56416-106.65756445 64.92842667-196.98119112zM743.96558222 470.15253333c0.13653333-56.05489778-10.45731555-108.34375111-25.42933333-159.10229333-38.68103111 93.4912-99.33368889 158.79509333-177.63328 201.37642667 62.98510222 14.97201778 129.14005333 10.39018667 203.06261333-42.27413334z m-236.10595555 30.26602667c48.62634667-27.91651555 88.61923555-63.24224 125.08615111-101.58193778-100.32128 13.23463111-187.18833778-6.62641778-263.22147556-53.14218667 18.53098667 62.03392 55.57816889 117.03182222 138.13532445 154.72412445z"  horiz-adv-x="1024" />

    
    <glyph glyph-name="shouye" unicode="&#58930;" d="M422.63 4.178999999999974V272.288h178.74v-268.109h223.424V361.658h134.054L512 763.821 65.152 361.658h134.054V4.17999999999995H422.63z"  horiz-adv-x="1024" />

    
    <glyph glyph-name="fangdajing" unicode="&#59101;" d="M736.5214816 244.43259307000005c48.54518507 66.74962987 78.8859264 145.6355552 78.88592533 230.5896288C815.40740693 693.4755552 639.43111147 869.45185173 420.97777813 869.45185173S26.54814827 693.4755552 26.54814827 475.02222187 202.5244448 80.59259307000002 420.97777813 80.59259307000002c84.9540736 0 163.84 30.34074027 230.5896288 72.81777706l236.65777814-236.65777706c24.27259307-24.27259307 60.6814816-24.27259307 84.95407466 0 24.27259307 24.27259307 24.27259307 60.6814816 0 84.9540736l-236.65777813 242.7259264zM420.97777813 141.27407359999995C238.93333333 141.27407359999995 87.22962987 292.97777813000005 87.22962987 475.02222187S238.93333333 808.77037013 420.97777813 808.77037013 754.7259264 657.06666667 754.7259264 475.02222187 603.02222187 141.27407359999995 420.97777813 141.27407359999995"  horiz-adv-x="1024" />

    
    <glyph glyph-name="mianfei" unicode="&#58963;" d="M512 776c216.1 0 392-175.9 392-392S728.1-8 512-8 120 167.89999999999998 120 384s175.9 392 392 392m0 56C264.6 832 64 631.4 64 384s200.6-448 448-448 448 200.6 448 448S759.4 832 512 832zM777.7 275.70000000000005c-14.1 23.5-36.1 23.5-50.2 0l-2-7.8c2.5-56.8-7.7-71.9-12.2-75.7-1.7-1.5-4.5-3.2-13.2-1.6l-102.6-0.2c-5.6-0.6-10.2-0.3-11.9 1.2-1.7 1.5-2.7 5.7-2.7 11.2v113l55.1 0.1c26.5-2 46.9 3.9 60 17.1 12.4 12.5 17.8 30.9 16.2 53.8l-0.1 60.1c1.7 20.6-2.7 37.2-13.2 49.5-11.2 13.1-28.7 20.7-53.3 22.5h-36.3c7.7 13.6 15.4 29.2 23.2 46.9 6.7 18.5 5.9 33.9-2.4 45.7-10 14.2-29.3 21.2-59 21.2h-124c1.8 3.3 3.6 6.8 5.4 10.4l1.5 6.2c0 14.3-4.3 23.9-12.7 28.7-8.4 4.6-18.5 3.6-30.4-3.6l-5-5.1c-39.6-70.7-91.1-127.9-153.2-170.3l-4.2-4.3c-7.1-11.8-8.3-22-3.5-30.4 4.8-8.5 14.4-12.7 28.7-12.7l7.4 2.1c10.5 6.6 20.9 13.8 31.2 21.7-3-9.2-4.5-19.8-4.5-31.7v-65.6c0-22.3 5.9-38.9 17.6-49.7 11-10 26.4-14.3 44.5-12.5h94c-25.6-58.8-93.7-104-202.7-134.4l-5-2.6c-11.6-9.2-16.6-18.9-14.9-28.8 1.8-9.7 9.7-17.1 23.6-21.7l8-0.3c133.7 34.9 218.2 98 251.4 187.7h2.3v-117.2c0-20.7 5.9-36.8 17.6-47.5 12.4-11.5 30.6-16.2 53.3-14.6l103.1 0.1c19.6-2.4 35.4 2 48 13.5 21.7 19.6 31.2 58.6 29.1 119.1l-2 6.5zM564.5 578.2c6.7 0 11.2-0.4 14.3-0.9l-0.9-1.4c-7.5-17.7-17.6-36.8-30-57.1H380.8c-6.9 0-13.4-0.6-19.4-1.9 18.1 18.3 35.7 38.8 52.7 61.4h150.4zM660 384.9c0.8-6.2 0.2-10.8-1.7-12.7-0.9-0.9-4.8-3.8-19.4-2.2H536.4c3.9 36.5 6.2 68.2 6.9 94.5h99.9c7.2 0 12.3-1.4 14.6-3.9 2.3-2.6 3.1-8 2-17.1l0.2-58.6z m-295.9 63c0 12.7 3.9 16.6 16.6 16.6h108.4c-0.6-29.5-2.9-61.2-7-94.5l-98.8-0.1c-7.4-1-12.8-0.2-15.3 2.1-2.5 2.3-3.9 7.5-3.9 14.7v61.2z"  horiz-adv-x="1024" />

    
    <glyph glyph-name="zaocan" unicode="&#58910;" d="M374.4 401.6c-14.4 0-25.6 12.8-24 25.6 0 14.4-8 28.8-19.2 38.4-17.6 12.8-38.4 20.8-60.8 22.4-12.8 1.6-22.4 14.4-20.8 27.2 1.6 11.2 11.2 19.2 22.4 20.8 32-1.6 64-12.8 89.6-33.6 24-19.2 38.4-48 36.8-78.4-1.6-12.8-11.2-22.4-24-22.4zM342.4 379.20000000000005c-14.4 0-25.6 12.8-24 25.6 0 14.4-8 28.8-19.2 38.4-17.6 12.8-38.4 20.8-60.8 22.4-12.8 1.6-22.4 14.4-20.8 27.2 1.6 11.2 11.2 19.2 22.4 20.8 32-1.6 64-12.8 89.6-33.6 24-19.2 38.4-48 36.8-78.4 0-12.8-11.2-22.4-24-22.4zM568 400h-3.2c-12.8 1.6-22.4 12.8-20.8 27.2 3.2 27.2-16 59.2-44.8 80-12.8 9.6-27.2 16-41.6 19.2-12.8 4.8-19.2 17.6-14.4 30.4 3.2 11.2 14.4 17.6 27.2 16 20.8-4.8 40-14.4 57.6-27.2 44.8-32 68.8-80 65.6-124.8-3.2-11.2-14.4-20.8-25.6-20.8zM531.2 392H528c-12.8 1.6-22.4 12.8-20.8 27.2 3.2 27.2-16 59.2-44.8 80-12.8 9.6-27.2 16-41.6 19.2-12.8 1.6-22.4 14.4-19.2 27.2s14.4 22.4 27.2 19.2c1.6 0 3.2 0 3.2-1.6 20.8-4.8 40-14.4 57.6-27.2 44.8-32 68.8-80 65.6-124.8-3.2-9.6-12.8-19.2-24-19.2zM747.2 483.2c40-22.4 56-70.4 40-112-27.2-76.8-107.2-147.2-169.6-156.8s232 12.8 265.6 88 38.4 88 6.4 113.6-124.8 104-142.4 67.2zM515.2 184H454.4l-35.2 1.6H416c-57.6 3.2-248 19.2-300.8 80-1.6 1.6-1.6 1.6-1.6 3.2-1.6 1.6-1.6 3.2-3.2 4.8l-9.6 14.4c-8 17.6-11.2 36.8-9.6 57.6C91.2 475.2 278.4 576 516.8 576c32 0 64-3.2 96-8 12.8-1.6 22.4-14.4 20.8-27.2s-14.4-22.4-27.2-20.8c-30.4 4.8-59.2 6.4-89.6 6.4-204.8 0-376-83.2-376-182.4-1.6-12.8 0-25.6 4.8-36.8 1.6-1.6 3.2-3.2 4.8-6.4l4.8-6.4c22.4-24 115.2-52.8 267.2-62.4h1.6l35.2-1.6h94.4c176 3.2 297.6 35.2 326.4 65.6l3.2 3.2 1.6 1.6 1.6 1.6 1.6 3.2 1.6 3.2c4.8 11.2 6.4 24 4.8 36.8 0 72-118.4 132.8-180.8 155.2-12.8 3.2-20.8 16-17.6 28.8s16 20.8 28.8 17.6c1.6 0 1.6 0 3.2-1.6 35.2-12.8 212.8-80 212.8-200 0-17.6-1.6-35.2-8-52.8-1.6-4.8-3.2-8-6.4-12.8-1.6-1.6-3.2-4.8-3.2-6.4l-9.6-9.6-1.6-1.6c-44.8-44.8-185.6-75.2-358.4-78.4H515.2z m368 118.4"  horiz-adv-x="1024" />

    
    <glyph glyph-name="taobao" unicode="&#58896;" d="M489.244444 543.2888889999999l30.492445-27.921067-15.246222-16.520533h196.972089l0.637155-45.738667-122.606933-0.6144v-59.096178l121.332622-1.911466v-29.855289h-120.718222l-0.6144-106.723556c40.641422-1.274311 53.976178 15.883378 53.976178 15.883378l-13.971912 27.966578 73.045334 42.552889 38.752711-86.380089v259.868444c-46.353067 119.466667-242.119111 28.603733-242.119111 28.603734l0.045511-0.091023zM511.453867 896C229.011911 896 0 666.965333 0 384.477867c0-282.464711 229.011911-511.476622 511.476622-511.476623 282.510222 0 511.522133 229.011911 511.522134 511.476623C1022.998756 666.965333 793.986844 896 511.476622 896zM256.068267 653.312a60.984889 60.984889 0 1 0 0-122.015289 60.984889 60.984889 0 0 0 0 122.015289z m62.2592-340.5824l-88.974223-183.000178-95.300266 60.984889 125.815466 137.261511c17.749333 22.892089 0 50.813156 0 50.813156L167.094044 458.865778l40.686934 55.933155s44.487111-34.315378 93.411555-82.602666c48.901689-48.287289 17.134933-119.466667 17.134934-119.466667z m524.856889-91.477333s-7.623111-108.043378-113.095112-105.494756c-105.426489 2.548622-105.494756 0-105.494755 0l-30.5152-0.022755s-17.749333 24.803556 0.659911 61.667555c0 0 38.729956 6.371556 45.078756-15.268978h44.487111s43.190044 8.260267 46.353066 76.231111l-60.984889-45.738666-22.232177 45.124266s-80.713956-64.785067-146.773334-60.370488h-89.611377s-58.459022 15.246222-61.622045 92.16v59.733333h91.522845s-9.557333-94.071467 44.464355-89.611378l1.251556 120.740978h-137.238756v30.5152h137.238756l-0.6144 60.370489-19.706311 0.637155-55.933156-55.296-36.864 33.041067 69.267911 68.608-1.911467 31.152356-87.062755-80.054045-52.724622 52.724622s69.859556 45.124267 92.7744 151.233423l78.119822-19.706312-12.674845-41.301333S799.903289 716.8682670000001 843.093333 499.598222v-278.300444l0.068267-0.045511z"  horiz-adv-x="1024" />

    
    <glyph glyph-name="shouc" unicode="&#58928;" d="M549.43288889 832.17066667L662.18666667 603.70488889c8.98844445-18.31822222 26.51022222-30.94755555 46.64888888-33.90577778l252.13155556-36.63644444c33.10933333-4.77866667 46.42133333-45.51111111 22.41422222-68.94933334L800.88177778 286.37866667000003a62.13973333 62.13973333 0 0 1-17.86311111-54.84088889l43.12177778-251.10755556c5.68888889-32.99555555-29.01333333-58.14044445-58.59555556-42.55288889L541.92355555 56.433777780000014c-18.09066667 9.44355555-39.59466667 9.44355555-57.68533333 0L258.84444445-62.122666669999944c-29.696-15.58755555-64.28444445 9.55733333-58.59555556 42.55288889L243.25688889 231.53777778000006c3.41333333 20.13866667-3.18577778 40.61866667-17.86311111 54.84088889L43.008 464.21333333c-24.00711111 23.32444445-10.69511111 64.17066667 22.41422222 68.94933334l252.13155556 36.63644444c20.13866667 2.95822222 37.66044445 15.58755555 46.64888889 33.90577778l112.75377778 228.46577778c14.79111111 30.03733333 57.57155555 30.03733333 72.47644444 0z"  horiz-adv-x="1024" />

    
    <glyph glyph-name="yiliaoxiang" unicode="&#59379;" d="M296.848255 670.922205v54.138929c0 69.214246 56.201911 125.595235 125.461183 125.595236l180.22842 0.006139c69.177407 0 124.702914-57.018507 124.702914-125.826501v-53.913803h-71.769437v53.915849c0 29.522325-23.059136 54.048879-52.9345 54.048879l-180.224328 0.008186c-29.472183 0-54.01204-24.366918-54.012039-53.836031l0.004093-54.136883h-71.456306zM1014.365591 545.32083c0 49.392845-40.32637 89.712052-89.712051 89.712052H99.350554c-49.438894 0-89.717168-40.32637-89.717169-89.712052v-538.272311c0-49.380565 40.278275-89.712052 89.712052-89.712052h825.308103c49.385682 0 89.712052 40.322277 89.712051 89.707959V545.32083z m-143.538873-592.186114V-10.893072999999958h50.865379c11.442587 0 20.904057 9.465563 20.904058 20.898941v50.866403h35.928208v-52.434105c0-30.365527-24.888804-55.30345-55.298333-55.30345h-52.399312z m-717.653436 646.060008v-35.928209l-50.866403-0.002047c-11.437471 0-20.904057-9.505472-20.904057-20.940896v-50.826494H45.47052v52.388056c0 30.369621 24.90313 55.309589 55.312659 55.30959h52.390103z m181.225119-500.633138l-0.008186-0.008186c-45.4828 45.437774-73.557149 108.236927-73.561243 177.632298 0 69.344206 28.083559 132.146428 73.561243 177.583179 45.442891 45.484846 108.246137 73.615477 177.586249 73.609338 69.395371 0 132.194524-28.120398 177.629228-73.609338 45.486893-45.438798 73.566359-108.23181 73.566359-177.583179 0-69.394348-28.078443-132.189407-73.566359-177.632298-45.434704-45.4828-108.233857-73.558172-177.629228-73.566359-69.345229 0.001023-132.143359 28.083559-177.578063 73.574545z m536.428317 500.633138h52.399312c30.40953 0 55.298333-24.939969 55.298333-55.30959v-52.388056h-35.928208v50.826494c0 11.435424-9.46147 20.940896-20.904058 20.940896l-50.865379 0.002047v35.928209z m-717.653436-646.060008H100.782156c-30.40953 0-55.312659 24.937922-55.312659 55.30345v52.434105h35.933325v-50.866403c0-11.433377 9.466587-20.898941 20.904057-20.898941h50.866403v-35.972211zM453.665523 451.125683h116.66793v-116.617788h116.625975v-116.634161h-116.625975v-116.631091H453.665523V217.873734h-116.625974V334.50789499999996h116.625974z"  horiz-adv-x="1024" />

    
    <glyph glyph-name="shuiguo" unicode="&#58961;" d="M713.2-75.89999999999998c-2.7 0-5.4 1.6-6.5 4.3-1.5 3.5 0.2 7.5 3.6 9.1 0.2 0.1 0.4 0.2 0.5 0.3 0.4 0.2 0.7 0.3 0.9 0.3 3.4 1.1 7.2-0.6 8.6-3.9a6.9 6.9 0 0 0-3.7-9.1c-0.1 0-0.1-0.1-0.2-0.1l-0.7-0.3c-0.7-0.4-1.6-0.6-2.5-0.6zM344.4-75.5c-0.8 0-1.6 0.1-2.4 0.4l-0.8 0.3c-0.1 0-0.2 0.1-0.3 0.1-3.6 1.4-5.3 5.4-4 9 1.4 3.6 5.4 5.4 9 4.1 0.3-0.1 0.6-0.2 0.8-0.3 0.1-0.1 0.3-0.1 0.4-0.2 0.1 0 0.2-0.1 0.3-0.2 3.3-1.6 4.8-5.6 3.4-9-1-2.6-3.6-4.2-6.4-4.2zM406.3-87c-22.3 0-43.9 4-64.4 12-33.6 11.2-67.1 30-99.6 55.8-31.7 25.2-60.9 55.8-86.9 91.2-54.4 74-88.5 160.6-96 244v0.2c-4.7 70.4 4 134.4 26.1 190 19.2 48.4 47.7 89.4 84.8 121.9 29 25.4 62.6 44.6 97.2 55.6 31.7 10.1 63.4 12.8 89.1 7.6 74.4-13.1 125.2-54.9 161.2-89.7 2.8-2.7 2.8-7.1 0.1-9.9-2.7-2.8-7.1-2.8-9.9-0.2-34.5 33.5-83.3 73.6-154 86h-0.2c-42.8 8.7-113.3-6.5-174.4-60-76.8-67.4-114.5-174.1-106-300.5 14.8-163.7 137.3-333.7 273.1-378.8 0.1 0 0.2-0.1 0.3-0.1 18.9-7.3 38.9-11.1 59.5-11.1 61.8 0 101.9 20 126.2 63.1 1.9 3.4 6.2 4.5 9.5 2.6 3.4-1.9 4.6-6.2 2.6-9.5C518-64 472.7-87 406.3-87zM658.6-87c-59 0-102.6 24.4-126.3 70.4-1.8 3.4-0.4 7.7 3 9.4 3.4 1.8 7.7 0.4 9.4-3 21.4-41.7 59.7-62.8 113.8-62.8 18.1 0 35.7 3.6 52.2 10.8 133.3 56.4 223.2 194 240.5 368.3 4.1 40.8 11.1 181-69.2 269.6-42 46.6-101.9 70.3-177.5 70.3-48.9 0-94.8-19.4-129.3-54.6-2-2-5.1-2.7-7.7-1.6-2.6 1.1-4.3 3.7-4.3 6.6l3.1 157.8-97.6 29.7c-3.7 1.1-5.8 5-4.7 8.7 1.1 3.7 5 5.8 8.7 4.7L575.4 766c3-0.9 5-3.7 5-6.8l-2.9-146.5c35.4 30.5 79.9 47.2 126.9 47.2 79.8 0 143.1-25.2 188.1-75 32.2-35.6 54.5-83 66.2-140.7 11.9-59.1 9.2-112.9 6.6-139.7-8.5-85.8-34.7-165.4-75.8-230.2-21.2-33.5-46.4-63.1-74.8-87.9-29.5-25.8-62.6-46.5-98.4-61.6-18.2-7.8-37.6-11.8-57.7-11.8zM710.3 697.9c-28.5 0-56.1 4.6-80.1 13.5-34.3 12.8-56.8 33-63.5 57l-0.6 2.1 0.7 2.1c7.4 21.4 27.9 41.3 57.9 56C654.1 843 689.4 851 724.1 851c33.9 0 68.9-6.6 98.5-18.6 31.4-12.7 53.5-30.5 62.3-50l1.3-2.8-1.2-2.8c-6.5-15.2-29.2-22.5-53.3-30.1-11.7-3.7-23.8-7.6-32-12-6.8-3.7-12.2-8.5-17.9-13.6-10.6-9.5-21.5-19.2-41.4-21.5-10-1.2-20.1-1.7-30.1-1.7z m-129.5 72.2c6.2-18.7 25.4-34.8 54.3-45.6 29.9-11.1 67.8-15.1 103.8-11 15.5 1.8 23.9 9.3 33.7 18 6.1 5.4 12.3 11 20.6 15.5 9.4 5 22.1 9.1 34.4 13 16.5 5.2 36.6 11.7 43.1 19.8C853 811.6 788.6 837 724.1 837c-32.6 0-65.7-7.5-93.2-21-25.2-12.4-43.3-29-50.1-45.9zM344.4 40.799999999999955c-1.4 0-2.7 0.4-3.9 1.2-47.7 32.4-76.7 78.3-92.6 111.2-17.2 35.5-23.2 63.1-23.5 64.3-0.8 3.8 1.6 7.5 5.4 8.3 3.8 0.8 7.5-1.6 8.3-5.4 0.1-0.4 6-27.4 22.5-61.4 15.2-31.2 42.7-74.8 87.7-105.3 3.2-2.2 4-6.5 1.9-9.7-1.3-2.1-3.5-3.2-5.8-3.2z"  horiz-adv-x="1024" />

    
    <glyph glyph-name="dingdan" unicode="&#58901;" d="M917.76007585-144.17161482000006H108.10405925a37.28270222 37.28270222 0 0 0-37.28270222 37.28270223V822.69312948A37.28270222 37.28270222 0 0 0 108.10405925 859.9758317h177.71421393a37.28270222 37.28270222 0 1 0 0-74.56540445H145.38676148v-853.4631917h735.09061215V785.41042725h-140.12082252a37.28270222 37.28270222 0 0 0 0 74.56540445h177.71421392a37.28270222 37.28270222 0 0 0 37.28270222-37.28270222v-928.02859615A37.28270222 37.28270222 0 0 0 917.76007585-144.17161482000006zM612.35260682 818.96485925h-198.84107852a37.28270222 37.28270222 0 1 0 0 74.56540445h198.84107852a37.28270222 37.28270222 0 0 0 0-74.56540445zM740.35655111 373.74725689H285.507584a37.28270222 37.28270222 0 1 0 0 74.56540444h454.84896711a37.28270222 37.28270222 0 1 0 0-74.56540444zM612.35260682 556.74318697H285.507584a37.28270222 37.28270222 0 0 0 0 74.56540444h326.84502282a37.28270222 37.28270222 0 0 0 0-74.56540444zM294.20688118 228.03402903000006m-38.83614815 0a38.83614815 38.83614815 0 1 1 77.6722963 0 38.83614815 38.83614815 0 1 1-77.6722963 0ZM449.86216297 228.03402903000006m-38.83614815 0a38.83614815 38.83614815 0 1 1 77.67229629 0 38.83614815 38.83614815 0 1 1-77.67229629 0ZM605.20675555 228.03402903000006m-38.83614814 0a38.83614815 38.83614815 0 1 1 77.67229629 0 38.83614815 38.83614815 0 1 1-77.67229629 0Z"  horiz-adv-x="1024" />

    
    <glyph glyph-name="gengduo" unicode="&#58900;" d="M337.780914 414.61704H139.086259c-73.697654 0-133.486682 59.96966-133.486682 133.486682v198.694655C5.599577 820.496031 65.569236 880.285059 139.086259 880.285059h198.694655c73.697654 0 133.486682-59.96966 133.486682-133.486682v-198.694655c0-73.697654-59.789028-133.486682-133.486682-133.486682zM139.26689 810.561298c-35.223143 0-63.943553-28.720409-63.943553-63.943552v-198.694656c0-35.223143 28.720409-63.943553 63.943553-63.943552h198.694655c35.223143 0 63.943553 28.720409 63.943553 63.943552v198.694656c0 35.223143-28.720409 63.943553-63.943553 63.943552h-198.694655zM884.010584 414.61704h-198.694655c-73.697654 0-133.486682 59.96966-133.486682 133.486682v198.694655c0 73.697654 59.96966 133.486682 133.486682 133.486682h198.694655c73.697654 0 133.486682-59.96966 133.486682-133.486682v-198.694655c0-73.697654-59.789028-133.486682-133.486682-133.486682zM685.49656 810.561298c-35.223143 0-63.943553-28.720409-63.943552-63.943552v-198.694656c0-35.223143 28.720409-63.943553 63.943552-63.943552h198.694655c35.223143 0 63.943553 28.720409 63.943553 63.943552v198.694656c0 35.223143-28.720409 63.943553-63.943553 63.943552h-198.694655zM337.780914-120.95537100000001H139.086259c-73.697654 0-133.486682 59.96966-133.486682 133.486682v198.694655c0 73.697654 59.96966 133.486682 133.486682 133.486682h198.694655c73.697654 0 133.486682-59.96966 133.486682-133.486682v-198.694655c0-73.517022-59.789028-133.486682-133.486682-133.486682zM139.26689 275.16951800000004c-35.223143 0-63.943553-28.720409-63.943553-63.943552v-198.694655c0-35.223143 28.720409-63.943553 63.943553-63.943553h198.694655c35.223143 0 63.943553 28.720409 63.943553 63.943553v198.694655c0 35.223143-28.720409 63.943553-63.943553 63.943552h-198.694655zM884.010584-120.95537100000001h-198.694655c-73.697654 0-133.486682 59.96966-133.486682 133.486682v198.694655c0 73.697654 59.96966 133.486682 133.486682 133.486682h198.694655c73.697654 0 133.486682-59.96966 133.486682-133.486682v-198.694655c0-73.517022-59.789028-133.486682-133.486682-133.486682zM685.49656 275.16951800000004c-35.223143 0-63.943553-28.720409-63.943552-63.943552v-198.694655c0-35.223143 28.720409-63.943553 63.943552-63.943553h198.694655c35.223143 0 63.943553 28.720409 63.943553 63.943553v198.694655c0 35.223143-28.720409 63.943553-63.943553 63.943552h-198.694655z"  horiz-adv-x="1024" />

    
    <glyph glyph-name="lvyou" unicode="&#59018;" d="M571.642419 461.126931m-420.567558 0a420.567558 420.567558 0 1 1 841.135116 0 420.567558 420.567558 0 1 1-841.135116 0ZM7.123855 365.05603599999995L486.560756 843.329711l24.745643-24.803443L31.869498 340.25259300000005zM531.283539-96.91802700000005l161.081493 161.081493 24.781768-24.781768-161.081493-161.081493zM446.649827 210.70824800000003l22.831017-176.506879-47.612785-21.675016-83.665561 139.370352M414.859804-9.943413999999962l-91.685317 152.808862 30.056022 18.062514 75.573555-126.004093 21.675016 9.826008-21.241516 163.718619 34.752276 4.551754 24.565018-189.439639-73.695054-33.524025zM347.522755 309.835321l-176.57913 22.903266-21.675016-47.685034 139.370352-83.593312M279.679955 186.43223L126.798843 278.11754699999995l33.596274 73.695054 189.367389-24.565018-4.479503-34.752275-163.71862 21.241516-9.898257-21.675016L297.670218 216.488252l-17.990263-30.056022zM751.25605 532.871234l-174.845128-172.027376L687.892754 249.36202600000001l112.926833-212.126155 50.358286 0.867001-99.921823 494.768362zM790.415579 19.60685799999999L673.659493 238.52451799999994 551.484654 360.98835799999995l210.536654 207.140902 110.470331-547.221901zM601.26494 360.771608l101.150074-101.150074 109.09758-204.90115h18.568264l-89.590066 442.965074zM174.845128 714.435617l-0.794751-50.358287 212.053906-112.926833 111.554081-111.554081 172.027376 174.917378L174.845128 714.435617zM497.730615 414.742398L375.700275 536.844987 156.349115 653.6010719999999l1.3005 82.148311 547.221901-110.470331z m-305.978975 260.10019L396.652791 565.383758l101.150074-101.150074 137.2751 139.225852-443.037324 89.590065zM974.64919965 817.33594881c-29.13122133 29.13122133-129.85742827-23.7365504-158.60331627-53.17603946L345.39940552 294.05289920999996c-31.44322347-31.44322347-168.77612373-211.702288-137.33290027-243.0684448s211.62522133 105.73554453 243.0684448 137.17876693L921.85849458 658.7326325399999c28.977088 29.13122133 81.84485973 129.54916159 52.79070507 158.60331627zM260.750441 89.47265900000002a32.584774 32.584774 0 0 0-24.781768 9.753757c-14.450011 14.450011-20.952515 41.905031 39.954279 135.8301a925.595428 925.595428 0 0 0 88.867565 116.828335l441.158823 441.158824c16.256262 16.256262 49.202286 36.125026 80.125309 49.057786 43.350032 17.773513 75.862556 17.990263 93.347068 0.50575 39.954279-39.954279-21.675016-145.728357-49.563536-173.400127L488.699358 227.97601099999997a926.028928 926.028928 0 0 0-116.828336-88.795315c-58.522543-37.931278-91.251817-49.708036-111.120581-49.708037z m0.578 35.113526c30.056022-3.179002 163.28512 88.939815 202.300149 128.243844L905.076413 693.699852c28.322021 28.322021 63.796797 109.67558 49.563536 123.908841-4.118253 4.118253-22.253016 5.346504-55.34354-8.164256a240.953926 240.953926 0 0 1-68.4208-41.110281L389.572285 327.10308299999997c-39.304029-39.231779-131.567346-172.244126-128.243844-202.516898zM556.058082 129.13793799999996l185.863261 185.856036 24.781769-24.781768-185.863262-185.856036z"  horiz-adv-x="1024" />

    
    <glyph glyph-name="paotui" unicode="&#59024;" d="M550.111903 397.691385m-339.791999 0a339.791999 339.791999 0 1 1 679.583998 0 339.791999 339.791999 0 1 1-679.583998 0ZM227.298666 822.521696h356.770762v-33.957525H227.298666zM6.358005 312.79757300000006h305.834474v-33.957525H6.358005zM159.311367 822.521696h33.957525v-33.957525h-33.957525zM91.324067 822.521696h33.957525v-33.957525h-33.957525zM898.729861 527.7752009999999m-92.160834-6.751697a92.407818 92.407818 0 1 1 184.321668 13.503394 92.407818 92.407818 0 1 1-184.321668-13.503394ZM898.501658 418.3549a109.38658 109.38658 0 1 0 109.24208 117.334086 109.45883 109.45883 0 0 0-101.150074-117.045086q-4.046003-0.289-8.092006-0.289z m0 184.743385h-5.563254a75.356805 75.356805 0 1 1 80.703309-69.649051 75.501305 75.501305 0 0 1-74.923305 69.721302zM820.327101 322.62357999999995l-91.035067 199.626896S640.857969 606.2050380000001 601.04819 618.6320470000001H346.222254c9.826007-36.630777 41.760531-65.025048 87.783814-72.250053l124.703591-15.461511 53.392789-71.527553-110.614831-114.082833-6.141254-7.658506c-55.921541-70.154801-19.796514-128.460594 35.330276-190.306639l62.929796-65.025048-170.004375-98.982572 25.937769-44.361533 252.441685 81.136809a46.312284 46.312284 0 0 1 22.686517 69.576801L627.130459 233.683765l77.813307 79.113808s43.350032-70.516052 66.036549-84.966062h121.885839c65.530798 0 98.982572 67.9873 98.982572 67.987299zM454.814083-77.208213l-10.404008 32.368024L696.77951 36.22437000000002a29.333521 29.333521 0 0 1 13.79976 43.855782L605.238693 235.70676600000002 708.050519 340.180343l11.343258-18.496014c15.822762-25.648769 42.627531-64.230297 57.222042-76.874056h116.250335c33.018274 0 56.716292 21.675016 70.299301 38.292528l-154.470613 24.131518L715.275524 512.207719c-25.143018 23.481267-87.422564 78.391307-117.045086 89.373315H372.087773a91.107317 91.107317 0 0 1 64.447047-38.437028l131.422846-16.328512 66.397799-88.939815-120.079588-123.764341-5.563254-7.225005c-45.806534-57.800042-23.120017-103.534326 34.752275-168.414873L621.350455 78.49065099999996l-188.861638-109.82008-17.123263 29.405771L566.440415 86.076907l-47.829535 49.491286c-52.887039 59.245043-103.173076 128.966344-36.125027 212.704156l7.225006 8.886756 100.138573 103.678826L549.100402 514.953221l-117.550836 14.45001C380.685529 537.4229869999999 341.74275 569.791011 329.821492 614.224794l-5.707755 21.675015h279.607705l2.456502-0.79475C648.516475 621.449799 731.604036 543.419742 740.996543 534.749735l2.384251-2.239751 88.650815-194.352643 185.321386-28.900021-10.187257-20.735765c-1.589501-3.179002-39.015029-77.452057-114.227334-77.452057H765.850561l-4.190503 2.673252c-18.279263 11.632259-44.289282 48.624286-59.750794 72.250053l-53.031539-53.970789 89.734566-132.506597A63.291046 63.291046 0 0 0 708.050519 4.0730969999999616zM113.577083-22.066971999999964l328.658266 157.96029 14.710111-30.605122-328.658266-157.960291zM83.354886 14.672179000000028l325.529838 230.152544 19.608665-27.72957L102.956325-13.05016599999999zM323.355112 694.068327l123.46089-223.007013-164.087095-90.839992-123.46089 222.999789zM276.139702 357.15910499999995l-139.876102 252.875186 193.774642 107.146828L469.625344 464.450434z m-93.925069 239.436676l107.146829-193.268892 134.385098 74.417555-106.930078 193.196641z"  horiz-adv-x="1024" />

    
    <glyph glyph-name="fenzu" unicode="&#58908;" d="M360.544 384.672V46.4a52.8 52.8 0 0 0-105.6 0V384.736a382.688 382.688 0 0 0-47.2 10.112 80 80 0 0 0-58.4 77.024V512c0 1.312 0 2.624 0.096 3.936a32.448 32.448 0 0 0-0.096 2.464V736a32 32 0 0 0 32 32h6.4a32 32 0 0 0 32-32v-223.2a26.4 26.4 0 1 1 52.8 0V736a32 32 0 0 0 32 32h6.4a32 32 0 0 0 32-32v-223.2a26.4 26.4 0 1 1 52.8 0V736a32 32 0 0 0 32 32h6.4a32 32 0 0 0 32-32v-217.6c0-0.832-0.032-1.664-0.096-2.464l0.096-3.936v-40.192a80 80 0 0 0-58.4-77.024c-15.712-4.416-31.456-7.776-47.2-10.112z m451.2-27.04v-311.232a52.8 52.8 0 0 0-105.6 0v311.232c-61.536 28.992-105.6 107.2-105.6 199.168 0 116.64 70.912 211.2 158.4 211.2 87.456 0 158.4-94.56 158.4-211.2 0-91.968-44.096-170.176-105.6-199.168z"  horiz-adv-x="1056" />

    
    <glyph glyph-name="shinshopshishiyinpin" unicode="&#58927;" d="M319 505.3l128.7-514.6 128.6 514.6zM619.2 521.4c85.7 0 155.5 69.7 155.5 155.3S704.9 832 619.2 832c-41.6 0-80.6-16.2-109.9-45.5-22.7-22.7-37.5-51.3-43-82.5H276.1c-8.3 0-16-3.8-21.1-10.3-5.1-6.5-6.9-15-4.9-23l170.3-681.1H297.6c-14.8 0-26.8-12-26.8-26.8s12-26.8 26.8-26.8h300.2c14.8 0 26.8 12 26.8 26.8s-12 26.8-26.8 26.8H474.9l133 532.1c3.7-0.2 7.5-0.3 11.3-0.3z m-72 227.2c19.2 19.2 44.8 29.8 72 29.8 56.2 0 101.8-45.6 101.8-101.7 0-55.4-44.6-100.6-99.8-101.7l23.9 95.7c2 8 0.2 16.5-4.9 23-5.1 6.5-12.9 10.3-21.1 10.3h-98c4.7 16.8 13.6 32.1 26.1 44.6z m37.7-98.2L447.7 101.6 310.5 650.4h274.4zM510.9 464.5c0 10.7-8.6 19.3-19.3 19.3h-85.8c-10.7 0-19.3-8.6-19.3-19.3 0-10.7 8.6-19.3 19.3-19.3h85.8c10.7 0 19.3 8.7 19.3 19.3z"  horiz-adv-x="1024" />

    


  </font>
</defs>
</svg>
